<svg width="451" height="69" viewBox="0 0 451 69" fill="none" xmlns="http://www.w3.org/2000/svg">
<rect x="334" y="4" width="117" height="65" fill="#2CFBFE"/>
<path d="M352.082 51V20.4545H361.33V26.0625H361.668C362.304 24.2064 363.378 22.7415 364.889 21.6676C366.401 20.5938 368.204 20.0568 370.298 20.0568C372.42 20.0568 374.236 20.6004 375.747 21.6875C377.259 22.7746 378.22 24.233 378.631 26.0625H378.949C379.519 24.2462 380.633 22.7945 382.29 21.7074C383.947 20.607 385.902 20.0568 388.156 20.0568C391.046 20.0568 393.393 20.9848 395.196 22.8409C396.999 24.6837 397.901 27.2159 397.901 30.4375V51H388.176V32.6648C388.176 31.1402 387.785 29.9801 387.003 29.1847C386.221 28.3759 385.206 27.9716 383.96 27.9716C382.621 27.9716 381.567 28.4091 380.798 29.2841C380.043 30.1458 379.665 31.3059 379.665 32.7642V51H370.318V32.5653C370.318 31.1468 369.934 30.0265 369.165 29.2045C368.396 28.3826 367.382 27.9716 366.122 27.9716C365.274 27.9716 364.525 28.1771 363.875 28.5881C363.225 28.9858 362.715 29.5559 362.344 30.2983C361.986 31.0407 361.807 31.9157 361.807 32.9233V51H352.082ZM412.531 33.5795V51H402.806V20.4545H412.053V26.0625H412.391C413.068 24.1932 414.221 22.7282 415.852 21.6676C417.482 20.5938 419.425 20.0568 421.678 20.0568C423.826 20.0568 425.689 20.5407 427.266 21.5085C428.857 22.4631 430.09 23.8021 430.965 25.5256C431.853 27.2358 432.291 29.2377 432.278 31.5312V51H422.553V33.4403C422.567 31.7434 422.136 30.4176 421.261 29.4631C420.399 28.5085 419.199 28.0312 417.661 28.0312C416.64 28.0312 415.739 28.2566 414.957 28.7074C414.188 29.1449 413.591 29.7746 413.167 30.5966C412.756 31.4186 412.544 32.4129 412.531 33.5795Z" fill="#020B75"/>
<path d="M29.75 29.7812L20.821 30.0199C20.7282 29.3835 20.4763 28.8201 20.0653 28.3295C19.6544 27.8258 19.1174 27.4347 18.4545 27.1562C17.8049 26.8646 17.0492 26.7188 16.1875 26.7188C15.0606 26.7188 14.0994 26.9441 13.304 27.3949C12.5218 27.8456 12.1373 28.4555 12.1506 29.2244C12.1373 29.821 12.3759 30.3381 12.8665 30.7756C13.3703 31.2131 14.2652 31.5644 15.5511 31.8295L21.4375 32.9432C24.4867 33.5265 26.7538 34.4943 28.2386 35.8466C29.7367 37.1989 30.4924 38.9886 30.5057 41.2159C30.4924 43.3106 29.8693 45.1335 28.6364 46.6847C27.4167 48.2358 25.7462 49.4422 23.625 50.304C21.5038 51.1525 19.0777 51.5767 16.3466 51.5767C11.9848 51.5767 8.54451 50.6818 6.02557 48.892C3.51989 47.089 2.08807 44.6761 1.73011 41.6534L11.3352 41.4148C11.5473 42.5284 12.0975 43.3769 12.9858 43.9602C13.8741 44.5436 15.0076 44.8352 16.3864 44.8352C17.6326 44.8352 18.6468 44.6032 19.429 44.1392C20.2112 43.6752 20.6089 43.0587 20.6222 42.2898C20.6089 41.6004 20.304 41.0502 19.7074 40.6392C19.1108 40.215 18.1761 39.8835 16.9034 39.6449L11.5739 38.6307C8.51136 38.0739 6.23106 37.0464 4.73295 35.5483C3.23485 34.0369 2.49242 32.1146 2.50568 29.7812C2.49242 27.7396 3.03599 25.9962 4.13636 24.5511C5.23674 23.0928 6.80114 21.9792 8.82955 21.2102C10.858 20.4413 13.2509 20.0568 16.0085 20.0568C20.1449 20.0568 23.4063 20.9252 25.7926 22.6619C28.179 24.3854 29.4981 26.7585 29.75 29.7812ZM51.4148 20.4545V27.6136H32.1449V20.4545H51.4148ZM36.1818 13.1364H45.9063V41.3949C45.9063 41.9915 45.9991 42.4754 46.1847 42.8466C46.3836 43.2045 46.6686 43.4631 47.0398 43.6222C47.411 43.768 47.8551 43.8409 48.3722 43.8409C48.7434 43.8409 49.1345 43.8078 49.5455 43.7415C49.9697 43.6619 50.2879 43.5956 50.5 43.5426L51.9716 50.5625C51.5076 50.6951 50.8514 50.8608 50.0029 51.0597C49.1676 51.2585 48.1667 51.3845 47 51.4375C44.7197 51.5436 42.7642 51.2784 41.1336 50.642C39.5161 49.9924 38.2765 48.9848 37.4148 47.6193C36.5663 46.2538 36.1553 44.5369 36.1818 42.4688V13.1364ZM63.8672 51.517C61.9184 51.517 60.1883 51.1922 58.6769 50.5426C57.1788 49.8797 55.9922 48.8854 55.1172 47.5597C54.2555 46.2206 53.8246 44.5436 53.8246 42.5284C53.8246 40.8314 54.1229 39.3996 54.7195 38.233C55.3161 37.0663 56.1381 36.1184 57.1854 35.3892C58.2328 34.66 59.4392 34.1098 60.8047 33.7386C62.1703 33.3542 63.6286 33.0956 65.1797 32.9631C66.9165 32.804 68.3152 32.6383 69.3758 32.4659C70.4364 32.2803 71.2053 32.0218 71.6826 31.6903C72.1731 31.3456 72.4184 30.8617 72.4184 30.2386V30.1392C72.4184 29.1184 72.0671 28.3295 71.3644 27.7727C70.6618 27.2159 69.7138 26.9375 68.5207 26.9375C67.2347 26.9375 66.2006 27.2159 65.4184 27.7727C64.6362 28.3295 64.139 29.0985 63.9269 30.0795L54.9582 29.7614C55.2233 27.9053 55.9061 26.2481 57.0064 24.7898C58.1201 23.3182 59.6447 22.1648 61.5803 21.3295C63.5292 20.4811 65.8691 20.0568 68.6002 20.0568C70.5491 20.0568 72.3455 20.2888 73.9894 20.7528C75.6333 21.2036 77.0652 21.8665 78.2849 22.7415C79.5046 23.6032 80.4458 24.6638 81.1087 25.9233C81.7849 27.1828 82.1229 28.6212 82.1229 30.2386V51H72.9752V46.7443H72.7366C72.193 47.7784 71.497 48.6534 70.6485 49.3693C69.8133 50.0852 68.8256 50.6222 67.6854 50.9801C66.5585 51.3381 65.2858 51.517 63.8672 51.517ZM66.8701 45.1534C67.9174 45.1534 68.8587 44.9413 69.6939 44.517C70.5424 44.0928 71.2186 43.5095 71.7224 42.767C72.2261 42.0114 72.478 41.1364 72.478 40.142V37.2386C72.1996 37.3845 71.8616 37.517 71.4638 37.6364C71.0794 37.7557 70.6551 37.8684 70.1911 37.9744C69.7271 38.0805 69.2498 38.1733 68.7593 38.2528C68.2688 38.3324 67.7981 38.4053 67.3474 38.4716C66.4326 38.6174 65.6504 38.8428 65.0008 39.1477C64.3644 39.4527 63.8739 39.8504 63.5292 40.3409C63.1977 40.8182 63.032 41.3883 63.032 42.0511C63.032 43.0587 63.39 43.8277 64.1059 44.358C64.835 44.8883 65.7564 45.1534 66.8701 45.1534ZM86.9489 51V20.4545H96.395V26.0227H96.7132C97.27 24.0076 98.1781 22.5095 99.4376 21.5284C100.697 20.5341 102.162 20.0369 103.832 20.0369C104.283 20.0369 104.747 20.0701 105.225 20.1364C105.702 20.1894 106.146 20.2756 106.557 20.3949V28.8466C106.093 28.6875 105.483 28.5616 104.727 28.4688C103.985 28.3759 103.322 28.3295 102.739 28.3295C101.585 28.3295 100.545 28.5881 99.6166 29.1051C98.7018 29.6089 97.9793 30.3182 97.4489 31.233C96.9319 32.1345 96.6734 33.1951 96.6734 34.4148V51H86.9489ZM128.063 20.4545V27.6136H108.793V20.4545H128.063ZM112.83 13.1364H122.554V41.3949C122.554 41.9915 122.647 42.4754 122.832 42.8466C123.031 43.2045 123.316 43.4631 123.688 43.6222C124.059 43.768 124.503 43.8409 125.02 43.8409C125.391 43.8409 125.782 43.8078 126.193 43.7415C126.618 43.6619 126.936 43.5956 127.148 43.5426L128.619 50.5625C128.155 50.6951 127.499 50.8608 126.651 51.0597C125.815 51.2585 124.815 51.3845 123.648 51.4375C121.368 51.5436 119.412 51.2784 117.781 50.642C116.164 49.9924 114.924 48.9848 114.063 47.6193C113.214 46.2538 112.803 44.5369 112.83 42.4688V13.1364ZM151.612 37.8153V20.4545H161.316V51H152.049V45.3125H151.731C151.055 47.1818 149.901 48.6667 148.271 49.767C146.653 50.8542 144.698 51.3977 142.404 51.3977C140.323 51.3977 138.493 50.9205 136.916 49.9659C135.338 49.0114 134.112 47.679 133.237 45.9688C132.362 44.2453 131.918 42.2301 131.904 39.9233V20.4545H141.629V38.0142C141.642 39.6714 142.079 40.9773 142.941 41.9318C143.803 42.8864 144.976 43.3636 146.461 43.3636C147.429 43.3636 148.297 43.1515 149.066 42.7273C149.848 42.2898 150.465 41.66 150.916 40.8381C151.38 40.0028 151.612 38.9953 151.612 37.8153ZM166.386 62.4545V20.4545H176.011V25.6847H176.309C176.707 24.7566 177.27 23.8617 177.999 23C178.742 22.1383 179.683 21.4356 180.823 20.892C181.977 20.3352 183.356 20.0568 184.96 20.0568C187.081 20.0568 189.063 20.6136 190.906 21.7273C192.762 22.8409 194.26 24.5578 195.4 26.8778C196.54 29.1979 197.11 32.1544 197.11 35.7472C197.11 39.2074 196.56 42.1042 195.46 44.4375C194.373 46.7708 192.901 48.5208 191.045 49.6875C189.202 50.8542 187.154 51.4375 184.9 51.4375C183.362 51.4375 182.03 51.1856 180.903 50.6818C179.776 50.178 178.828 49.5152 178.059 48.6932C177.303 47.8712 176.72 46.9896 176.309 46.0483H176.11V62.4545H166.386ZM175.911 35.7273C175.911 37.3712 176.13 38.803 176.568 40.0227C177.018 41.2424 177.661 42.1903 178.497 42.8665C179.345 43.5294 180.359 43.8608 181.539 43.8608C182.732 43.8608 183.747 43.5294 184.582 42.8665C185.417 42.1903 186.047 41.2424 186.471 40.0227C186.909 38.803 187.127 37.3712 187.127 35.7273C187.127 34.0833 186.909 32.6581 186.471 31.4517C186.047 30.2453 185.417 29.3106 184.582 28.6477C183.76 27.9848 182.746 27.6534 181.539 27.6534C180.346 27.6534 179.332 27.9782 178.497 28.6278C177.661 29.2775 177.018 30.2055 176.568 31.4119C176.13 32.6184 175.911 34.0568 175.911 35.7273ZM210.811 33.5795V51H201.086V20.4545H210.333V26.0625H210.671C211.348 24.1932 212.501 22.7282 214.132 21.6676C215.762 20.5938 217.705 20.0568 219.958 20.0568C222.106 20.0568 223.969 20.5407 225.546 21.5085C227.137 22.4631 228.37 23.8021 229.245 25.5256C230.133 27.2358 230.571 29.2377 230.558 31.5312V51H220.833V33.4403C220.847 31.7434 220.416 30.4176 219.541 29.4631C218.679 28.5085 217.479 28.0312 215.941 28.0312C214.92 28.0312 214.019 28.2566 213.237 28.7074C212.468 29.1449 211.871 29.7746 211.447 30.5966C211.036 31.4186 210.824 32.4129 210.811 33.5795ZM249.737 51.5767C246.542 51.5767 243.784 50.947 241.464 49.6875C239.157 48.4148 237.381 46.6051 236.134 44.2585C234.901 41.8987 234.285 39.0947 234.285 35.8466C234.285 32.6913 234.908 29.9337 236.154 27.5739C237.401 25.2008 239.157 23.358 241.424 22.0455C243.691 20.7197 246.363 20.0568 249.438 20.0568C251.613 20.0568 253.601 20.3949 255.404 21.071C257.207 21.7472 258.765 22.7481 260.078 24.0739C261.39 25.3996 262.411 27.0369 263.14 28.9858C263.869 30.9214 264.234 33.142 264.234 35.6477V38.0739H237.686V32.4261H255.186C255.172 31.392 254.927 30.4706 254.45 29.6619C253.973 28.8532 253.316 28.2235 252.481 27.7727C251.659 27.3087 250.711 27.0767 249.637 27.0767C248.55 27.0767 247.576 27.322 246.714 27.8125C245.852 28.2898 245.169 28.946 244.666 29.7812C244.162 30.6032 243.897 31.5379 243.87 32.5852V38.3324C243.87 39.5786 244.116 40.6723 244.606 41.6136C245.097 42.5417 245.793 43.2642 246.694 43.7812C247.596 44.2983 248.669 44.5568 249.916 44.5568C250.777 44.5568 251.56 44.4375 252.262 44.1989C252.965 43.9602 253.568 43.6089 254.072 43.1449C254.576 42.6809 254.954 42.1108 255.205 41.4347L264.134 41.6932C263.763 43.6951 262.948 45.4384 261.688 46.9233C260.442 48.3949 258.805 49.5417 256.776 50.3636C254.748 51.1723 252.401 51.5767 249.737 51.5767ZM273.46 51L265.505 20.4545H275.269L279.386 40.0227H279.644L284.059 20.4545H293.585L298.119 39.8835H298.377L302.375 20.4545H312.139L304.164 51H293.764L288.991 33.2017H288.653L283.88 51H273.46ZM341.589 29.7812L332.66 30.0199C332.567 29.3835 332.315 28.8201 331.904 28.3295C331.493 27.8258 330.956 27.4347 330.294 27.1562C329.644 26.8646 328.888 26.7188 328.027 26.7188C326.9 26.7188 325.938 26.9441 325.143 27.3949C324.361 27.8456 323.976 28.4555 323.99 29.2244C323.976 29.821 324.215 30.3381 324.706 30.7756C325.209 31.2131 326.104 31.5644 327.39 31.8295L333.277 32.9432C336.326 33.5265 338.593 34.4943 340.078 35.8466C341.576 37.1989 342.331 38.9886 342.345 41.2159C342.331 43.3106 341.708 45.1335 340.475 46.6847C339.256 48.2358 337.585 49.4422 335.464 50.304C333.343 51.1525 330.917 51.5767 328.186 51.5767C323.824 51.5767 320.384 50.6818 317.865 48.892C315.359 47.089 313.927 44.6761 313.569 41.6534L323.174 41.4148C323.386 42.5284 323.937 43.3769 324.825 43.9602C325.713 44.5436 326.847 44.8352 328.225 44.8352C329.472 44.8352 330.486 44.6032 331.268 44.1392C332.05 43.6752 332.448 43.0587 332.461 42.2898C332.448 41.6004 332.143 41.0502 331.546 40.6392C330.95 40.215 330.015 39.8835 328.742 39.6449L323.413 38.6307C320.35 38.0739 318.07 37.0464 316.572 35.5483C315.074 34.0369 314.331 32.1146 314.345 29.7812C314.331 27.7396 314.875 25.9962 315.975 24.5511C317.076 23.0928 318.64 21.9792 320.669 21.2102C322.697 20.4413 325.09 20.0568 327.848 20.0568C331.984 20.0568 335.245 20.9252 337.632 22.6619C340.018 24.3854 341.337 26.7585 341.589 29.7812Z" fill="#020B75"/>
</svg>
