<svg width="295" height="51" viewBox="0 0 295 51" fill="none" xmlns="http://www.w3.org/2000/svg">
<path d="M27.2525 16.8182L19.3737 17.303C19.2391 16.6296 18.9495 16.0236 18.5051 15.4848C18.0606 14.9327 17.4747 14.4949 16.7475 14.1717C16.0337 13.835 15.1785 13.6667 14.1818 13.6667C12.8485 13.6667 11.7239 13.9495 10.8081 14.5152C9.89226 15.0673 9.43434 15.8081 9.43434 16.7374C9.43434 17.4781 9.73064 18.1044 10.3232 18.6162C10.9158 19.1279 11.9327 19.5387 13.3737 19.8485L18.9899 20.9798C22.0067 21.5993 24.2559 22.596 25.7374 23.9697C27.2189 25.3434 27.9596 27.1481 27.9596 29.3838C27.9596 31.4175 27.3603 33.202 26.1616 34.7374C24.9764 36.2727 23.3468 37.4714 21.2727 38.3333C19.2121 39.1818 16.835 39.6061 14.1414 39.6061C10.0337 39.6061 6.76094 38.7508 4.32323 37.0404C1.89899 35.3165 0.478115 32.9731 0.0606062 30.0101L8.52525 29.5657C8.78115 30.8182 9.40067 31.7744 10.3838 32.4343C11.367 33.0808 12.6263 33.404 14.1616 33.404C15.67 33.404 16.8822 33.1145 17.798 32.5354C18.7273 31.9428 19.1987 31.1818 19.2121 30.2525C19.1987 29.4714 18.8687 28.8316 18.2222 28.3333C17.5758 27.8215 16.5791 27.431 15.2323 27.1616L9.85859 26.0909C6.82828 25.4848 4.57239 24.4343 3.09091 22.9394C1.6229 21.4444 0.888889 19.5387 0.888889 17.2222C0.888889 15.229 1.42761 13.5118 2.50505 12.0707C3.59596 10.6296 5.12458 9.51852 7.09091 8.73737C9.07071 7.95623 11.3872 7.56566 14.0404 7.56566C17.9596 7.56566 21.0438 8.39394 23.2929 10.0505C25.5556 11.7071 26.8754 13.963 27.2525 16.8182ZM44.195 7.9697V14.4343H25.5081V7.9697H44.195ZM29.7505 0.535353H38.3566V29.4646C38.3566 30.2593 38.4778 30.8788 38.7202 31.3232C38.9626 31.7542 39.2993 32.0572 39.7303 32.2323C40.1747 32.4074 40.6865 32.4949 41.2657 32.4949C41.6697 32.4949 42.0737 32.4613 42.4778 32.3939C42.8818 32.3131 43.1916 32.2525 43.4071 32.2121L44.7606 38.6162C44.3296 38.7508 43.7236 38.9057 42.9424 39.0808C42.1613 39.2694 41.2118 39.3838 40.0939 39.4242C38.0199 39.5051 36.2017 39.229 34.6394 38.596C33.0906 37.963 31.8852 36.9798 31.0232 35.6465C30.1613 34.3131 29.737 32.6296 29.7505 30.596V0.535353ZM52.9606 39.5859C50.9808 39.5859 49.2165 39.2424 47.6677 38.5556C46.1189 37.8552 44.8933 36.8249 43.9909 35.4646C43.102 34.0909 42.6576 32.3805 42.6576 30.3333C42.6576 28.6094 42.9741 27.1616 43.6071 25.9899C44.2401 24.8182 45.102 23.8754 46.1929 23.1616C47.2838 22.4478 48.5229 21.9091 49.9101 21.5455C51.3108 21.1818 52.7788 20.9259 54.3141 20.7778C56.1189 20.5892 57.5734 20.4141 58.6778 20.2525C59.7822 20.0774 60.5835 19.8215 61.0818 19.4848C61.5801 19.1481 61.8293 18.6498 61.8293 17.9899V17.8687C61.8293 16.5892 61.4253 15.5993 60.6172 14.899C59.8226 14.1987 58.6912 13.8485 57.2232 13.8485C55.6744 13.8485 54.4421 14.1919 53.5263 14.8788C52.6104 15.5522 52.0044 16.4007 51.7081 17.4242L43.7485 16.7778C44.1525 14.8923 44.9471 13.2626 46.1323 11.8889C47.3175 10.5017 48.8461 9.43771 50.7182 8.69697C52.6037 7.94276 54.7855 7.56566 57.2636 7.56566C58.9875 7.56566 60.6374 7.76768 62.2131 8.17172C63.8024 8.57576 65.2098 9.20202 66.4354 10.0505C67.6744 10.899 68.6508 11.9899 69.3646 13.3232C70.0784 14.6431 70.4354 16.2256 70.4354 18.0707V39H62.2737V34.697H62.0313C61.533 35.6667 60.8663 36.5219 60.0313 37.2626C59.1963 37.9899 58.1929 38.5623 57.0212 38.9798C55.8495 39.3838 54.496 39.5859 52.9606 39.5859ZM55.4253 33.6465C56.6912 33.6465 57.8091 33.3973 58.7788 32.899C59.7485 32.3872 60.5094 31.7003 61.0616 30.8384C61.6138 29.9764 61.8899 29 61.8899 27.9091V24.6162C61.6205 24.7912 61.2502 24.9529 60.7788 25.101C60.3209 25.2357 59.8024 25.3636 59.2232 25.4848C58.6441 25.5926 58.065 25.6936 57.4859 25.7879C56.9067 25.8687 56.3815 25.9428 55.9101 26.0101C54.9 26.1582 54.0178 26.3939 53.2636 26.7172C52.5094 27.0404 51.9236 27.4781 51.5061 28.0303C51.0886 28.569 50.8798 29.2424 50.8798 30.0505C50.8798 31.2222 51.304 32.1178 52.1525 32.7374C53.0145 33.3434 54.1054 33.6465 55.4253 33.6465ZM71.4232 39V7.9697H79.7667V13.3838H80.0899C80.6556 11.4579 81.6051 10.0034 82.9384 9.0202C84.2717 8.02357 85.8071 7.52525 87.5444 7.52525C87.9754 7.52525 88.4401 7.55219 88.9384 7.60606C89.4367 7.65993 89.8744 7.73401 90.2515 7.82828V15.4646C89.8475 15.3434 89.2886 15.2357 88.5748 15.1414C87.8609 15.0471 87.2077 15 86.6152 15C85.3492 15 84.2178 15.2761 83.2212 15.8283C82.2381 16.367 81.4569 17.1212 80.8778 18.0909C80.3121 19.0606 80.0293 20.1785 80.0293 21.4444V39H71.4232ZM107.073 7.9697V14.4343H88.3859V7.9697H107.073ZM92.6283 0.535353H101.234V29.4646C101.234 30.2593 101.356 30.8788 101.598 31.3232C101.84 31.7542 102.177 32.0572 102.608 32.2323C103.053 32.4074 103.564 32.4949 104.143 32.4949C104.547 32.4949 104.952 32.4613 105.356 32.3939C105.76 32.3131 106.069 32.2525 106.285 32.2121L107.638 38.6162C107.207 38.7508 106.601 38.9057 105.82 39.0808C105.039 39.2694 104.09 39.3838 102.972 39.4242C100.898 39.5051 99.0795 39.229 97.5172 38.596C95.9683 37.963 94.763 36.9798 93.901 35.6465C93.0391 34.3131 92.6148 32.6296 92.6283 30.596V0.535353ZM126.889 25.7879V7.9697H135.495V39H127.232V33.3636H126.909C126.209 35.1818 125.044 36.6431 123.414 37.7475C121.798 38.8519 119.825 39.404 117.495 39.404C115.421 39.404 113.596 38.9327 112.02 37.9899C110.444 37.0471 109.212 35.7071 108.323 33.9697C107.448 32.2323 107.003 30.1515 106.99 27.7273V7.9697H115.596V26.1919C115.609 28.0236 116.101 29.4714 117.071 30.5354C118.04 31.5993 119.34 32.1313 120.97 32.1313C122.007 32.1313 122.976 31.8956 123.879 31.4242C124.781 30.9394 125.508 30.2256 126.061 29.2828C126.626 28.3401 126.902 27.1751 126.889 25.7879ZM136.69 50.6364V7.9697H145.175V13.1818H145.559C145.936 12.3468 146.481 11.4983 147.195 10.6364C147.922 9.76094 148.865 9.03367 150.023 8.45455C151.195 7.86195 152.649 7.56566 154.387 7.56566C156.649 7.56566 158.737 8.15825 160.649 9.34343C162.562 10.5152 164.091 12.2862 165.235 14.6566C166.38 17.0135 166.953 19.9697 166.953 23.5253C166.953 26.9865 166.394 29.9091 165.276 32.2929C164.171 34.6633 162.663 36.4613 160.751 37.6869C158.852 38.899 156.724 39.5051 154.367 39.5051C152.697 39.5051 151.276 39.229 150.104 38.6768C148.946 38.1246 147.996 37.431 147.256 36.596C146.515 35.7475 145.949 34.8923 145.559 34.0303H145.296V50.6364H136.69ZM145.114 23.4848C145.114 25.33 145.37 26.9394 145.882 28.3131C146.394 29.6869 147.134 30.7576 148.104 31.5253C149.074 32.2795 150.252 32.6566 151.639 32.6566C153.04 32.6566 154.225 32.2727 155.195 31.5051C156.165 30.7239 156.899 29.6465 157.397 28.2727C157.909 26.8855 158.165 25.2896 158.165 23.4848C158.165 21.6936 157.915 20.1178 157.417 18.7576C156.919 17.3973 156.185 16.3333 155.215 15.5657C154.245 14.798 153.054 14.4141 151.639 14.4141C150.239 14.4141 149.054 14.7845 148.084 15.5253C147.128 16.266 146.394 17.3165 145.882 18.6768C145.37 20.037 145.114 21.6397 145.114 23.4848ZM175.607 21.0606V39H167.001V7.9697H175.203V13.4444H175.567C176.254 11.6397 177.405 10.2121 179.021 9.16161C180.637 8.09764 182.597 7.56566 184.9 7.56566C187.055 7.56566 188.934 8.03704 190.536 8.9798C192.139 9.92256 193.385 11.2694 194.274 13.0202C195.163 14.7576 195.607 16.8316 195.607 19.2424V39H187.001V20.7778C187.014 18.8788 186.53 17.3973 185.546 16.3333C184.563 15.2559 183.21 14.7172 181.486 14.7172C180.328 14.7172 179.304 14.9663 178.415 15.4646C177.54 15.963 176.853 16.6902 176.355 17.6465C175.87 18.5892 175.621 19.7273 175.607 21.0606ZM210.842 39.6061C207.651 39.6061 204.903 38.9596 202.6 37.6667C200.31 36.3603 198.546 34.5152 197.307 32.1313C196.068 29.734 195.448 26.899 195.448 23.6263C195.448 20.4343 196.068 17.633 197.307 15.2222C198.546 12.8114 200.29 10.9327 202.539 9.58586C204.802 8.23906 207.455 7.56566 210.499 7.56566C212.546 7.56566 214.452 7.89562 216.216 8.55556C217.994 9.20202 219.543 10.1785 220.863 11.4848C222.196 12.7912 223.233 14.4343 223.974 16.4141C224.714 18.3805 225.085 20.6835 225.085 23.3232V25.6869H198.883V20.3535H216.984C216.984 19.1145 216.714 18.0168 216.176 17.0606C215.637 16.1044 214.89 15.3569 213.933 14.8182C212.991 14.266 211.893 13.9899 210.64 13.9899C209.334 13.9899 208.176 14.2929 207.166 14.899C206.169 15.4916 205.388 16.2929 204.822 17.303C204.257 18.2997 203.967 19.4108 203.954 20.6364V25.7071C203.954 27.2424 204.236 28.569 204.802 29.6869C205.381 30.8047 206.196 31.6667 207.246 32.2727C208.297 32.8788 209.543 33.1818 210.984 33.1818C211.94 33.1818 212.815 33.0471 213.61 32.7778C214.405 32.5084 215.085 32.1044 215.651 31.5657C216.216 31.0269 216.647 30.367 216.943 29.5859L224.903 30.1111C224.499 32.0236 223.671 33.6936 222.418 35.1212C221.179 36.5354 219.576 37.6397 217.61 38.4343C215.657 39.2155 213.401 39.6061 210.842 39.6061ZM230.911 39L222.467 7.9697H231.174L235.982 28.8182H236.265L241.275 7.9697H249.82L254.911 28.697H255.174L259.901 7.9697H268.588L260.164 39H251.053L245.719 19.4848H245.335L240.002 39H230.911ZM293.308 16.8182L285.429 17.303C285.295 16.6296 285.005 16.0236 284.561 15.4848C284.116 14.9327 283.53 14.4949 282.803 14.1717C282.089 13.835 281.234 13.6667 280.237 13.6667C278.904 13.6667 277.779 13.9495 276.864 14.5152C275.948 15.0673 275.49 15.8081 275.49 16.7374C275.49 17.4781 275.786 18.1044 276.379 18.6162C276.971 19.1279 277.988 19.5387 279.429 19.8485L285.045 20.9798C288.062 21.5993 290.311 22.596 291.793 23.9697C293.274 25.3434 294.015 27.1481 294.015 29.3838C294.015 31.4175 293.416 33.202 292.217 34.7374C291.032 36.2727 289.402 37.4714 287.328 38.3333C285.268 39.1818 282.891 39.6061 280.197 39.6061C276.089 39.6061 272.816 38.7508 270.379 37.0404C267.955 35.3165 266.534 32.9731 266.116 30.0101L274.581 29.5657C274.837 30.8182 275.456 31.7744 276.439 32.4343C277.423 33.0808 278.682 33.404 280.217 33.404C281.726 33.404 282.938 33.1145 283.854 32.5354C284.783 31.9428 285.254 31.1818 285.268 30.2525C285.254 29.4714 284.924 28.8316 284.278 28.3333C283.631 27.8215 282.635 27.431 281.288 27.1616L275.914 26.0909C272.884 25.4848 270.628 24.4343 269.146 22.9394C267.678 21.4444 266.944 19.5387 266.944 17.2222C266.944 15.229 267.483 13.5118 268.561 12.0707C269.652 10.6296 271.18 9.51852 273.146 8.73737C275.126 7.95623 277.443 7.56566 280.096 7.56566C284.015 7.56566 287.099 8.39394 289.348 10.0505C291.611 11.7071 292.931 13.963 293.308 16.8182Z" fill="#2CFBFE"/>
</svg>
