<svg width="14" height="15" viewBox="0 0 14 15" fill="none" xmlns="http://www.w3.org/2000/svg">
<path d="M7.71072 0.509447C9.36872 0.509447 9.48574 2.71234 9.48574 2.71234V4.76603C9.49155 5.17934 9.40101 5.58831 9.22134 5.96046C9.04167 6.3326 8.7778 6.65767 8.45071 6.90984C8.45071 6.90984 8.3767 7.36945 8.4357 7.33941C8.4947 7.30937 8.13573 9.40612 9.94473 9.67247C11.2454 9.89605 12.4544 10.4894 13.4278 11.3817C13.7473 12.2319 13.9393 13.1247 13.9977 14.0312H0.00271238C-0.0257313 13.1147 0.169892 12.2052 0.572659 11.3817C1.61145 10.4968 2.86802 9.90659 4.2117 9.67247C6.0117 9.40612 5.41173 7.40449 5.47073 7.43353C5.52973 7.46257 5.45572 7.00397 5.45572 7.00397C4.90695 6.31226 4.56512 5.47904 4.46975 4.60081C4.48475 3.46032 4.46975 2.71234 4.46975 2.71234C4.46975 2.71234 4.43371 0.00878906 6.27871 0.00878906L7.71072 0.509447Z" fill="#020B75"/>
</svg>
